<mxfile host="65bd71144e">
    <diagram id="jFO14rB3YYO8mCNnxFxb" name="Page-1">
        <mxGraphModel dx="2485" dy="1824" grid="1" gridSize="10" guides="1" tooltips="1" connect="1" arrows="1" fold="1" page="1" pageScale="1" pageWidth="827" pageHeight="1169" math="0" shadow="0">
            <root>
                <mxCell id="0"/>
                <mxCell id="1" parent="0"/>
                <mxCell id="2" value="&lt;h1&gt;&lt;span&gt;Direct Transfer of Items&lt;/span&gt;&lt;/h1&gt;&lt;h1&gt;&lt;span style=&quot;font-size: 12px ; font-weight: normal&quot;&gt;basic transfert of items between 2 holders. ready to be supercharged for handling complex routins between origin &amp;amp; destination&lt;/span&gt;&lt;br&gt;&lt;/h1&gt;" style="text;html=1;strokeColor=none;fillColor=none;spacing=5;spacingTop=-20;whiteSpace=wrap;overflow=hidden;rounded=0;" parent="1" vertex="1">
                    <mxGeometry x="-165" width="740" height="80" as="geometry"/>
                </mxCell>
                <mxCell id="3" value="Item" style="swimlane;" parent="1" vertex="1">
                    <mxGeometry x="40" y="90" width="170" height="590" as="geometry"/>
                </mxCell>
                <mxCell id="15" style="edgeStyle=none;html=1;entryX=0.5;entryY=0;entryDx=0;entryDy=0;fontSize=9;" parent="3" source="11" target="14" edge="1">
                    <mxGeometry relative="1" as="geometry"/>
                </mxCell>
                <mxCell id="11" value="" style="ellipse;whiteSpace=wrap;html=1;aspect=fixed;fillColor=#000000;" parent="3" vertex="1">
                    <mxGeometry x="60" y="50" width="20" height="20" as="geometry"/>
                </mxCell>
                <mxCell id="13" value="transfer(destination,transaction)" style="text;strokeColor=none;fillColor=none;align=center;verticalAlign=middle;spacingLeft=4;spacingRight=4;overflow=hidden;points=[[0,0.5],[1,0.5]];portConstraint=eastwest;rotatable=0;fontSize=9;fontStyle=1" parent="3" vertex="1">
                    <mxGeometry x="10" y="20" width="150" height="30" as="geometry"/>
                </mxCell>
                <mxCell id="14" value="" style="rhombus;whiteSpace=wrap;html=1;fontSize=9;" parent="3" vertex="1">
                    <mxGeometry x="60" y="90" width="20" height="20" as="geometry"/>
                </mxCell>
                <mxCell id="17" value="&lt;font style=&quot;font-size: 8px&quot;&gt;free ?&lt;/font&gt;" style="text;html=1;strokeColor=none;fillColor=none;align=center;verticalAlign=middle;whiteSpace=wrap;rounded=0;fontSize=9;" parent="3" vertex="1">
                    <mxGeometry x="80" y="90" width="30" height="10" as="geometry"/>
                </mxCell>
                <mxCell id="4" value="Router" style="swimlane;" parent="1" vertex="1">
                    <mxGeometry x="214" y="90" width="196" height="590" as="geometry"/>
                </mxCell>
                <mxCell id="23" value=".transfer(destination, transaction)" style="swimlane;fontSize=8;" parent="4" vertex="1">
                    <mxGeometry x="16" y="130" width="174" height="438" as="geometry"/>
                </mxCell>
                <mxCell id="34" value="" style="rhombus;whiteSpace=wrap;html=1;fontSize=9;" parent="23" vertex="1">
                    <mxGeometry x="75" y="60" width="20" height="20" as="geometry"/>
                </mxCell>
                <mxCell id="39" style="edgeStyle=none;html=1;entryX=0.5;entryY=0;entryDx=0;entryDy=0;fontSize=8;" parent="23" source="36" target="34" edge="1">
                    <mxGeometry relative="1" as="geometry"/>
                </mxCell>
                <mxCell id="36" value="get destination" style="rounded=0;whiteSpace=wrap;html=1;fontSize=8;" parent="23" vertex="1">
                    <mxGeometry x="10" y="30" width="150" height="20" as="geometry"/>
                </mxCell>
                <mxCell id="50" style="edgeStyle=none;html=1;exitX=0.5;exitY=1;exitDx=0;exitDy=0;entryX=0.5;entryY=0;entryDx=0;entryDy=0;fontSize=8;" parent="23" source="34" target="49" edge="1">
                    <mxGeometry relative="1" as="geometry">
                        <mxPoint x="85" y="110" as="sourcePoint"/>
                    </mxGeometry>
                </mxCell>
                <mxCell id="49" value="&lt;i&gt;use direct or routed booking class&amp;nbsp;&lt;/i&gt;" style="rounded=0;whiteSpace=wrap;html=1;fontSize=8;" parent="23" vertex="1">
                    <mxGeometry x="30" y="98" width="110" height="30" as="geometry"/>
                </mxCell>
                <mxCell id="54" value="" style="rhombus;whiteSpace=wrap;html=1;fontSize=9;" parent="23" vertex="1">
                    <mxGeometry x="77" y="150" width="20" height="20" as="geometry"/>
                </mxCell>
                <mxCell id="56" value="&lt;font style=&quot;font-size: 8px&quot;&gt;errors ?&lt;/font&gt;" style="text;html=1;strokeColor=none;fillColor=none;align=center;verticalAlign=middle;whiteSpace=wrap;rounded=0;fontSize=9;" parent="23" vertex="1">
                    <mxGeometry x="65" y="140" width="44" height="10" as="geometry"/>
                </mxCell>
                <mxCell id="109" value="&lt;font style=&quot;font-size: 5px&quot;&gt;booking.validated&lt;/font&gt;" style="rounded=0;whiteSpace=wrap;html=1;fontSize=5;fillColor=#0050ef;fontColor=#ffffff;strokeColor=#001DBC;verticalAlign=middle;labelPosition=center;verticalLabelPosition=middle;align=center;spacing=0;horizontal=1;" vertex="1" parent="23">
                    <mxGeometry x="104" y="227.9999999999999" width="56" height="10" as="geometry"/>
                </mxCell>
                <mxCell id="24" value="Exception" style="rounded=0;whiteSpace=wrap;html=1;fontSize=8;" parent="23" vertex="1">
                    <mxGeometry x="20" y="410" width="84" height="20" as="geometry"/>
                </mxCell>
                <mxCell id="53" value="no" style="edgeStyle=none;html=1;exitX=0;exitY=0.5;exitDx=0;exitDy=0;fontSize=8;" parent="4" source="34" edge="1">
                    <mxGeometry x="-0.8462" relative="1" as="geometry">
                        <Array as="points">
                            <mxPoint x="26" y="212"/>
                            <mxPoint x="26" y="530"/>
                            <mxPoint x="78" y="530"/>
                        </Array>
                        <mxPoint x="78" y="550" as="targetPoint"/>
                        <mxPoint as="offset"/>
                    </mxGeometry>
                </mxCell>
                <mxCell id="89" value="&lt;font style=&quot;font-size: 5px&quot;&gt;booking.cancelled&lt;/font&gt;" style="rounded=0;whiteSpace=wrap;html=1;fontSize=5;fillColor=#0050ef;fontColor=#ffffff;strokeColor=#001DBC;verticalAlign=middle;labelPosition=center;verticalLabelPosition=middle;align=center;spacing=0;horizontal=1;" parent="4" vertex="1">
                    <mxGeometry x="6" y="459.9999999999999" width="56" height="10" as="geometry"/>
                </mxCell>
                <mxCell id="62" value="" style="rhombus;whiteSpace=wrap;html=1;fontSize=9;" parent="4" vertex="1">
                    <mxGeometry x="88" y="375" width="20" height="20" as="geometry"/>
                </mxCell>
                <mxCell id="65" value="&lt;font style=&quot;font-size: 8px&quot;&gt;transaction?&lt;/font&gt;" style="text;html=1;strokeColor=none;fillColor=none;align=center;verticalAlign=middle;whiteSpace=wrap;rounded=0;fontSize=9;" parent="4" vertex="1">
                    <mxGeometry x="44" y="375" width="44" height="10" as="geometry"/>
                </mxCell>
                <mxCell id="97" value="yes" style="edgeStyle=none;html=1;entryX=1;entryY=0.5;entryDx=0;entryDy=0;fontSize=9;exitX=0;exitY=0.5;exitDx=0;exitDy=0;" edge="1" parent="4" source="68" target="24">
                    <mxGeometry relative="1" as="geometry">
                        <Array as="points">
                            <mxPoint x="146" y="470"/>
                            <mxPoint x="146" y="560"/>
                        </Array>
                    </mxGeometry>
                </mxCell>
                <mxCell id="68" value="" style="rhombus;whiteSpace=wrap;html=1;fontSize=9;" parent="4" vertex="1">
                    <mxGeometry x="162" y="460" width="20" height="20" as="geometry"/>
                </mxCell>
                <mxCell id="69" value="yes" style="edgeStyle=none;html=1;exitX=0.5;exitY=1;exitDx=0;exitDy=0;entryX=0.5;entryY=0;entryDx=0;entryDy=0;fontSize=8;" parent="4" source="62" target="68" edge="1">
                    <mxGeometry x="-0.3651" relative="1" as="geometry">
                        <Array as="points">
                            <mxPoint x="96" y="430"/>
                            <mxPoint x="172" y="430"/>
                        </Array>
                        <mxPoint as="offset"/>
                    </mxGeometry>
                </mxCell>
                <mxCell id="71" value="&lt;font style=&quot;font-size: 8px&quot;&gt;errors ?&lt;/font&gt;" style="text;html=1;strokeColor=none;fillColor=none;align=right;verticalAlign=middle;whiteSpace=wrap;rounded=0;fontSize=9;" parent="4" vertex="1">
                    <mxGeometry x="116" y="460" width="44" height="10" as="geometry"/>
                </mxCell>
                <mxCell id="85" value="&lt;font style=&quot;font-size: 5px&quot;&gt;booking.waiting_transaction&lt;/font&gt;" style="rounded=0;whiteSpace=wrap;html=1;fontSize=5;fillColor=#0050ef;fontColor=#ffffff;strokeColor=#001DBC;verticalAlign=middle;labelPosition=center;verticalLabelPosition=middle;align=center;spacing=0;horizontal=1;" parent="4" vertex="1">
                    <mxGeometry x="88" y="410" width="66" height="10" as="geometry"/>
                </mxCell>
                <mxCell id="5" value="origin [ItemsHolder]" style="swimlane;startSize=23;" parent="1" vertex="1">
                    <mxGeometry x="-165" y="90" width="200" height="590" as="geometry"/>
                </mxCell>
                <mxCell id="18" value="" style="rhombus;whiteSpace=wrap;html=1;fontSize=9;" parent="5" vertex="1">
                    <mxGeometry x="90" y="90" width="20" height="20" as="geometry"/>
                </mxCell>
                <mxCell id="22" value="&lt;font style=&quot;font-size: 8px&quot;&gt;.cancel_booking(booking)-&amp;gt;bool&lt;/font&gt;" style="text;html=1;strokeColor=none;fillColor=none;align=center;verticalAlign=middle;whiteSpace=wrap;rounded=0;fontSize=9;fontStyle=1" parent="5" vertex="1">
                    <mxGeometry x="10" y="74" width="180" height="10" as="geometry"/>
                </mxCell>
                <mxCell id="99" value="accept booking" style="rounded=0;whiteSpace=wrap;html=1;fontSize=8;" vertex="1" parent="5">
                    <mxGeometry x="25" y="330" width="150" height="20" as="geometry"/>
                </mxCell>
                <mxCell id="6" value="destination [ItemsHolder]" style="swimlane;startSize=23;" parent="1" vertex="1">
                    <mxGeometry x="414" y="90" width="206" height="590" as="geometry"/>
                </mxCell>
                <mxCell id="42" value="accept booking" style="rounded=0;whiteSpace=wrap;html=1;fontSize=8;" parent="6" vertex="1">
                    <mxGeometry x="36" y="330" width="150" height="20" as="geometry"/>
                </mxCell>
                <mxCell id="91" value="&lt;font style=&quot;font-size: 5px&quot;&gt;booking.init&lt;/font&gt;" style="rounded=0;whiteSpace=wrap;html=1;fontSize=5;fillColor=#0050ef;fontColor=#ffffff;strokeColor=#001DBC;verticalAlign=middle;labelPosition=center;verticalLabelPosition=middle;align=center;spacing=0;horizontal=1;" parent="6" vertex="1">
                    <mxGeometry x="96" y="285" width="66" height="10" as="geometry"/>
                </mxCell>
                <mxCell id="112" value="&lt;font style=&quot;font-size: 5px&quot;&gt;booking.committing&lt;/font&gt;" style="rounded=0;whiteSpace=wrap;html=1;fontSize=5;fillColor=#0050ef;fontColor=#ffffff;strokeColor=#001DBC;verticalAlign=middle;labelPosition=center;verticalLabelPosition=middle;align=center;spacing=0;horizontal=1;" vertex="1" parent="6">
                    <mxGeometry x="130" y="390" width="56" height="10" as="geometry"/>
                </mxCell>
                <mxCell id="12" value="" style="ellipse;whiteSpace=wrap;html=1;aspect=fixed;fillColor=#000000;" parent="1" vertex="1">
                    <mxGeometry x="282" y="710" width="20" height="20" as="geometry"/>
                </mxCell>
                <mxCell id="19" style="edgeStyle=none;html=1;fontSize=8;" parent="1" source="14" edge="1">
                    <mxGeometry relative="1" as="geometry">
                        <mxPoint x="-60" y="190" as="targetPoint"/>
                    </mxGeometry>
                </mxCell>
                <mxCell id="20" value="False" style="edgeLabel;html=1;align=center;verticalAlign=middle;resizable=0;points=[];fontSize=8;" parent="19" vertex="1" connectable="0">
                    <mxGeometry x="0.0928" relative="1" as="geometry">
                        <mxPoint x="67" as="offset"/>
                    </mxGeometry>
                </mxCell>
                <mxCell id="25" style="edgeStyle=none;html=1;exitX=0.5;exitY=1;exitDx=0;exitDy=0;entryX=0.5;entryY=0;entryDx=0;entryDy=0;fontSize=8;" parent="1" source="24" target="12" edge="1">
                    <mxGeometry relative="1" as="geometry"/>
                </mxCell>
                <mxCell id="28" style="edgeStyle=none;html=1;exitX=0.5;exitY=1;exitDx=0;exitDy=0;fontSize=8;" parent="1" source="14" edge="1">
                    <mxGeometry relative="1" as="geometry">
                        <mxPoint x="230" y="300" as="targetPoint"/>
                        <Array as="points">
                            <mxPoint x="110" y="300"/>
                        </Array>
                    </mxGeometry>
                </mxCell>
                <mxCell id="29" style="edgeStyle=none;html=1;exitX=0.5;exitY=1;exitDx=0;exitDy=0;fontSize=8;" parent="1" source="18" edge="1">
                    <mxGeometry relative="1" as="geometry">
                        <mxPoint x="110.00000000000011" y="210" as="targetPoint"/>
                        <Array as="points">
                            <mxPoint x="-65" y="210"/>
                        </Array>
                    </mxGeometry>
                </mxCell>
                <mxCell id="30" value="True" style="edgeLabel;html=1;align=center;verticalAlign=middle;resizable=0;points=[];fontSize=8;" parent="29" vertex="1" connectable="0">
                    <mxGeometry x="-0.2123" y="1" relative="1" as="geometry">
                        <mxPoint x="115" y="21" as="offset"/>
                    </mxGeometry>
                </mxCell>
                <mxCell id="96" value="True" style="edgeLabel;html=1;align=center;verticalAlign=middle;resizable=0;points=[];fontSize=9;" vertex="1" connectable="0" parent="29">
                    <mxGeometry x="-0.3358" y="1" relative="1" as="geometry">
                        <mxPoint x="-33" as="offset"/>
                    </mxGeometry>
                </mxCell>
                <mxCell id="43" value="TransferBooking" style="swimlane;startSize=23;" parent="1" vertex="1">
                    <mxGeometry x="618" y="90" width="200" height="590" as="geometry"/>
                </mxCell>
                <mxCell id="51" value="init booking instance" style="rounded=0;whiteSpace=wrap;html=1;fontSize=8;" parent="43" vertex="1">
                    <mxGeometry x="36" y="245" width="150" height="20" as="geometry"/>
                </mxCell>
                <mxCell id="66" value="commit" style="rounded=0;whiteSpace=wrap;html=1;fontSize=8;" parent="43" vertex="1">
                    <mxGeometry x="83" y="400" width="56" height="20" as="geometry"/>
                </mxCell>
                <mxCell id="83" value="&lt;font style=&quot;font-size: 5px&quot;&gt;booking.committed&lt;/font&gt;" style="rounded=0;whiteSpace=wrap;html=1;fontSize=5;fillColor=#0050ef;fontColor=#ffffff;strokeColor=#001DBC;verticalAlign=middle;labelPosition=center;verticalLabelPosition=middle;align=center;spacing=0;horizontal=1;" parent="43" vertex="1">
                    <mxGeometry x="22" y="430" width="56" height="10" as="geometry"/>
                </mxCell>
                <mxCell id="55" style="edgeStyle=none;html=1;entryX=1;entryY=0.5;entryDx=0;entryDy=0;fontSize=8;exitX=0;exitY=0.5;exitDx=0;exitDy=0;startArrow=none;" parent="1" source="91" target="54" edge="1">
                    <mxGeometry relative="1" as="geometry">
                        <Array as="points"/>
                    </mxGeometry>
                </mxCell>
                <mxCell id="78" value="no" style="edgeStyle=none;html=1;entryX=1;entryY=0.5;entryDx=0;entryDy=0;fontSize=8;exitX=0.5;exitY=1;exitDx=0;exitDy=0;" parent="1" source="68" target="12" edge="1">
                    <mxGeometry x="-0.8305" relative="1" as="geometry">
                        <Array as="points">
                            <mxPoint x="386" y="720"/>
                        </Array>
                        <mxPoint as="offset"/>
                    </mxGeometry>
                </mxCell>
                <mxCell id="86" value="&lt;font style=&quot;font-size: 5px&quot;&gt;booking.rollbacked&lt;/font&gt;" style="rounded=0;whiteSpace=wrap;html=1;fontSize=5;fillColor=#0050ef;fontColor=#ffffff;strokeColor=#001DBC;verticalAlign=middle;labelPosition=center;verticalLabelPosition=middle;align=center;spacing=0;horizontal=1;" parent="1" vertex="1">
                    <mxGeometry x="510" y="600.5699999999999" width="56" height="10" as="geometry"/>
                </mxCell>
                <mxCell id="95" value="False" style="edgeStyle=none;html=1;exitX=0;exitY=0.5;exitDx=0;exitDy=0;entryX=0;entryY=0.5;entryDx=0;entryDy=0;fontSize=9;" edge="1" parent="1" source="18" target="24">
                    <mxGeometry x="-0.9476" relative="1" as="geometry">
                        <Array as="points">
                            <mxPoint x="-160" y="190"/>
                            <mxPoint x="-160" y="640"/>
                        </Array>
                        <mxPoint as="offset"/>
                    </mxGeometry>
                </mxCell>
                <mxCell id="67" value="no" style="edgeStyle=none;html=1;fontSize=8;" parent="1" source="62" edge="1">
                    <mxGeometry x="-0.4605" relative="1" as="geometry">
                        <Array as="points">
                            <mxPoint x="530" y="475"/>
                            <mxPoint x="732" y="475"/>
                        </Array>
                        <mxPoint as="offset"/>
                        <mxPoint x="732" y="490" as="targetPoint"/>
                    </mxGeometry>
                </mxCell>
                <mxCell id="70" style="edgeStyle=none;html=1;exitX=0.5;exitY=1;exitDx=0;exitDy=0;fontSize=8;" parent="1" source="66" edge="1">
                    <mxGeometry relative="1" as="geometry">
                        <Array as="points">
                            <mxPoint x="729" y="520"/>
                            <mxPoint x="386" y="520"/>
                        </Array>
                        <mxPoint x="386" y="550" as="targetPoint"/>
                    </mxGeometry>
                </mxCell>
                <mxCell id="90" value="&lt;font style=&quot;font-size: 5px&quot;&gt;booking.committed&lt;/font&gt;" style="rounded=0;whiteSpace=wrap;html=1;fontSize=5;fillColor=#0050ef;fontColor=#ffffff;strokeColor=#001DBC;verticalAlign=middle;labelPosition=center;verticalLabelPosition=middle;align=center;spacing=0;horizontal=1;" parent="1" vertex="1">
                    <mxGeometry x="370" y="700" width="56" height="10" as="geometry"/>
                </mxCell>
                <mxCell id="101" style="edgeStyle=none;html=1;entryX=0;entryY=0.5;entryDx=0;entryDy=0;fontSize=9;" edge="1" parent="1" source="49" target="51">
                    <mxGeometry relative="1" as="geometry"/>
                </mxCell>
                <mxCell id="102" style="edgeStyle=none;html=1;exitX=0.5;exitY=1;exitDx=0;exitDy=0;entryX=1;entryY=0.75;entryDx=0;entryDy=0;fontSize=9;" edge="1" parent="1" source="51" target="91">
                    <mxGeometry relative="1" as="geometry">
                        <Array as="points">
                            <mxPoint x="729" y="382"/>
                        </Array>
                    </mxGeometry>
                </mxCell>
                <mxCell id="104" value="yes" style="edgeStyle=none;html=1;exitX=0;exitY=0.5;exitDx=0;exitDy=0;fontSize=9;" edge="1" parent="1" source="54">
                    <mxGeometry x="-0.194" relative="1" as="geometry">
                        <mxPoint x="240" y="380.0975609756099" as="targetPoint"/>
                        <mxPoint as="offset"/>
                    </mxGeometry>
                </mxCell>
                <mxCell id="105" value="no" style="edgeStyle=none;html=1;exitX=0.5;exitY=1;exitDx=0;exitDy=0;entryX=0.5;entryY=0;entryDx=0;entryDy=0;fontSize=9;" edge="1" parent="1" source="54" target="99">
                    <mxGeometry x="-0.878" relative="1" as="geometry">
                        <Array as="points">
                            <mxPoint x="315" y="400"/>
                            <mxPoint x="-65" y="400"/>
                        </Array>
                        <mxPoint as="offset"/>
                    </mxGeometry>
                </mxCell>
                <mxCell id="106" value="True" style="edgeStyle=none;html=1;entryX=0;entryY=0.5;entryDx=0;entryDy=0;fontSize=9;" edge="1" parent="1" source="99" target="42">
                    <mxGeometry x="-0.7727" relative="1" as="geometry">
                        <mxPoint as="offset"/>
                    </mxGeometry>
                </mxCell>
                <mxCell id="107" value="True" style="edgeStyle=none;html=1;exitX=0.5;exitY=1;exitDx=0;exitDy=0;entryX=0.5;entryY=0;entryDx=0;entryDy=0;fontSize=9;" edge="1" parent="1" source="42" target="62">
                    <mxGeometry x="-0.7059" relative="1" as="geometry">
                        <Array as="points">
                            <mxPoint x="525" y="450"/>
                            <mxPoint x="490" y="450"/>
                            <mxPoint x="312" y="450"/>
                        </Array>
                        <mxPoint as="offset"/>
                    </mxGeometry>
                </mxCell>
                <mxCell id="108" value="False" style="edgeStyle=none;html=1;fontSize=9;" edge="1" parent="1" source="99">
                    <mxGeometry x="-0.8095" relative="1" as="geometry">
                        <mxPoint x="-65" y="640" as="targetPoint"/>
                        <mxPoint as="offset"/>
                    </mxGeometry>
                </mxCell>
            </root>
        </mxGraphModel>
    </diagram>
</mxfile>